<svg width="936" height="938" viewBox="0 0 936 938" fill="none" xmlns="http://www.w3.org/2000/svg">
<path d="M175.36 16.259C217.411 12.3195 235.38 54.6003 241.625 55.7474C245.053 56.3767 254.888 51.8092 258.503 50.7366C284.788 42.9334 312.093 46.4613 337.107 56.7593C353.002 36.245 368.881 16.7452 397.294 16.1812C426.67 15.598 442.425 36.0788 448.279 62.7835C454.023 88.9888 448.195 115.784 430.507 136.286C429.257 137.734 428.48 137.712 426.834 137.611C416.269 129.231 426.301 118.487 429.737 109.694C436.166 92.8518 438.285 73.9991 431.597 56.9493C423.725 36.8842 404.213 27.4622 385.656 40.7743C374.468 48.7998 368.155 57.7897 363.227 70.5326C382.981 89.7869 399.613 107.349 411.109 132.872C418.56 149.417 422.618 163.443 433.831 177.842C438.921 184.379 446.656 195.624 450.552 202.787C462.951 225.721 467.421 252.111 463.267 277.849C457.647 311.166 432.007 338.193 403.992 355.218C396.714 359.64 385.232 364.518 378.946 369.225C403.335 367.193 437.583 350.117 454.012 332.214C473.222 311.39 483.382 283.793 482.26 255.484C482.184 253.258 482.336 252.755 483.613 251.411C488.342 250.729 515.655 267.267 521.646 269.103C524.261 269.904 534.872 275.155 537.864 276.759C574.6 296.371 607.214 322.877 633.92 354.828C696.938 429.689 718.569 531.12 705.29 625.98C703.851 636.251 706.088 647.908 710.046 657.446C725.871 694.645 770.075 700.378 803.989 713.65C832.691 724.878 871.202 747.636 881.632 778.68C917.155 884.392 754.25 926.664 679.965 935.846C673.513 936.638 634.283 941.216 636.018 930.45C640.293 924.44 669.899 916.637 677.88 913.807C698.225 906.59 719.736 900.178 739.929 892.592C758.195 885.731 777.305 875.539 793.929 865.387C808.983 855.663 827.255 839.112 830.501 820.635C837.065 783.232 784.826 768.693 757.938 763.851C745.569 760.308 731.709 759.893 719.782 757.056C705.428 753.652 675.671 748.098 663.401 740.941C662.781 739.535 662.655 738.803 663.493 737.299C670.842 724.119 676.739 711.19 678.072 695.799L678.144 694.869C672.676 703.425 666.33 713.452 659.416 721.197C642.199 740.466 618.665 754.78 595.309 765.441C591.165 767.334 575.905 771.239 573.732 773.489C567.428 780.013 576.522 796.537 567.652 805.258C564.411 808.207 558.323 810.687 554.12 811.987C521.919 821.941 488.839 829.039 456.422 838.38C437.409 843.862 418.38 849.693 398.944 853.045C395.43 853.651 390.961 852.952 388.266 850.498C383.333 840.478 402.391 825.945 409.07 820.483L408.212 820.121C403.608 820.312 401.734 821.658 398.053 822.766C384.632 825.167 378.358 842.074 369.207 847.246C359.113 852.952 347.221 848.552 353.373 834.468C362.161 814.355 384.27 801.914 404.529 797.956C434.115 792.177 469.182 794.558 496.84 781.965C491.263 776.642 483.189 770.758 477.008 765.098C459.663 748.969 447.572 727.998 442.306 704.903C433.146 665.277 442.366 625.835 469.523 595.002C485.319 577.066 503.577 564.354 527.179 558.912C518.554 558.78 512.91 559.75 504.632 561.682C463.439 571.307 435.766 603.314 424.285 643.217C415.016 676.656 419.094 712.39 435.66 742.88C382.183 734.898 326.088 699.936 292.012 658.607C273.524 635.394 248.068 599.745 238.89 571.439C226.818 534.22 222.388 524.424 199.502 492.549C173.784 456.729 164.262 406.739 168.005 362.723C174.713 365.055 193.958 371.34 200.818 370.179L201.149 369.594C200 368.28 175.867 356.116 171.53 353.426C162.877 347.943 154.773 341.635 147.333 334.592C125.297 313.799 115.244 291.458 114.097 262.456C112.504 222.161 130.7 197.329 153.384 166.797C158.856 156.858 162.195 145.558 167.059 135.334C173.337 122.137 181.024 108.936 190.148 97.4569C197.391 88.3443 207.173 79.5891 215.336 71.0042C209.279 57.1927 200.873 40.8686 186.551 36.6771C144.55 24.3868 135.973 82.7417 148.996 110.32C152.13 116.958 155.107 121.257 157.662 126.884L157.989 127.613L151.558 139.176C125.197 115.588 120.479 61.8876 142.938 34.2607C152.277 22.7719 161.473 18.8759 175.36 16.259ZM294.847 341.202C322.352 334.703 329.749 308.824 340.534 286.339C345.149 276.718 354.793 256.116 361.54 248.496C365.873 251.112 369.044 253.344 373.1 256.286C372.843 253.863 372.588 250.69 371.967 248.481C369.252 238.81 362.05 228.229 350.571 230.017C349.211 230.229 348.976 230.217 347.785 231.05C347.514 233.415 349.44 236.386 350.656 238.735C348.405 243.538 347.832 243.589 344.329 247.461C332.242 260.829 315.831 269.484 297.938 262.067C295.971 261.252 295.585 260.801 294.567 259.014C294.822 251.005 312.129 243.67 317.69 233.713C333.921 204.652 309.72 193.41 283.058 196.451C275.249 197.065 265.935 197.785 260.496 204.353C250.03 216.991 256.718 233.065 268.014 242.459C272.277 246.004 287.832 253.088 282.249 260.359C280.221 262.999 273.335 264.661 270.039 264.622C251.593 264.431 241.805 255.977 229.604 243.082C228.187 241.584 227.431 240.776 226.23 239.095C228.284 236.907 231.776 233.821 232.166 231.197C229.884 229.369 228.761 229.86 225.933 230.048C211.738 230.992 207.042 244.496 205.404 256.578C208.827 253.422 211.623 249.845 216.134 249.761C221.401 251.695 223.444 257.929 226.091 262.518C238.006 283.173 245.47 307.145 260.113 326.107C269.335 338.049 280.491 341.579 294.847 341.202ZM453.232 444.532C452.651 446.735 452.168 449.024 451.668 451.247C442.075 479.956 427.208 505.017 399.881 519.958C384.969 528.105 364.206 534.695 350.349 543.443C338.289 551.062 342.844 584.098 330.001 592.093C323.479 596.15 320.89 577.923 318.536 575.469C315.852 577.857 315.53 607.971 303.131 595.833C295.946 588.808 298.344 577.086 298.628 567.831C296.504 572.099 293.99 580.747 290.749 582.396C281.998 579.916 287.251 550.316 289.313 543.977C292.317 534.511 296.672 525.526 302.244 517.3C315.885 497.444 336.062 483.617 336.525 457.125C336.573 454.368 336.29 446.227 333.557 444.98C332.726 449.301 332.622 451.419 330.63 455.318C324.342 467.64 316.819 476.618 307.677 486.823C302.456 492.945 294.374 499.977 290.064 506.561C277.952 525.071 264.772 557.533 271.302 579.467C277.275 599.534 297.561 620.901 320.16 611.877C331.952 607.166 344.05 603.585 350.434 591.414C356.236 580.938 355.4 568.424 360.801 559.367C363.026 555.64 377.904 549.544 382.226 547.75C406.181 537.769 428.681 526.225 441.35 502.378C449.894 486.295 451.924 481.137 453.516 462.158C454.801 456.578 454.205 450.1 453.232 444.532ZM351.731 159.343C337.847 165.541 334.4 177.783 338.88 191.642C339.227 192.714 339.505 192.724 340.415 193.117C348.261 188.086 344.62 184.451 357.665 180.074C368.88 177.818 370.151 181.339 379.912 184.979C376.654 168.071 371.334 157.998 351.731 159.343ZM329.228 348.248C324.385 350.797 319.848 353.907 314.933 356.15C296.572 364.526 274.403 361.473 256.922 352.327C254.911 351.276 252.237 349.793 250.188 348.961C260.698 378.463 308.94 383.184 323.437 357.836C326.234 354.014 327.111 352.51 329.228 348.248ZM216.163 159.455C204.545 165.627 200.78 171.993 198.934 184.833C208.776 180.185 216.74 175.18 226.947 182.78L227.642 183.278C229.993 184.977 237.097 191.676 238.358 192.132C240.627 190.049 241.076 186.034 241.073 183.003C241.055 165.546 232.811 158.4 216.163 159.455Z" fill="#070707"/>
<path d="M289.044 305.555C295.511 302.113 311.256 296.972 314.158 307.58C315.401 312.12 308.956 320.539 305.335 322.83C298.596 328.894 289.028 331.217 280.541 327.486C273.14 324.232 261.866 314.403 265.044 305.304C265.812 303.104 269.558 302.389 271.587 301.82C280.282 301.181 281.708 300.961 289.044 305.555Z" fill="#191616"/>
<path d="M453.231 444.532C454.204 450.1 454.801 456.578 453.516 462.159C453.146 458.933 453.811 458.478 452.619 454.909L452.675 455.727C451.533 454.078 451.878 453.589 451.668 451.248C452.168 449.025 452.651 446.736 453.231 444.532Z" fill="#FEFEFE" fill-opacity="0.0117647"/>
<path d="M249.049 630.604C251.368 632.062 272.689 662.447 276.804 667.282C298.267 692.831 324.949 714.824 353.574 731.811C366.791 739.654 389.333 741.35 380.705 762.228C378.097 768.534 363.66 771.668 358.143 772.288C336.809 774.669 229.136 800.674 216.316 793.806C214.688 791.603 215.175 792.441 214.965 789.334C218.234 781.635 221.33 777.941 228.184 772.829C230.581 771.048 232.127 770.764 234.21 768.488L233.917 767.763C230.542 766.424 228.992 768.356 226.024 769.221C211.346 773.502 206.851 786.695 195.193 793.615C191.593 795.752 185.189 794.954 184.051 789.993C181.64 779.498 190.884 769.973 198.305 763.93C219.466 745.934 247.15 746.95 273.202 745.308C279.733 744.892 286.072 744.12 292.559 743.335C301.903 742.491 303.19 744.034 312.721 740.934C309.121 737.543 303.633 733.79 299.593 730.676C293.476 725.993 287.767 720.801 282.529 715.154C263.483 694.823 248.167 658.409 249.049 630.604Z" fill="#070707"/>
<path d="M164.608 465.048C170.404 469.573 181.067 498.731 187.864 506.231C189.499 508.038 205.379 530.045 205.498 530.863C207.337 543.535 212.122 556.267 214.717 568.603C214.025 571.208 213.833 572.785 212.187 574.922C205.797 579.111 196.707 568.187 192.169 563.939C194.839 572.58 194.822 574.612 200.734 581.413C204.165 584.811 207.696 587.02 206.037 592.113C200.792 598.624 187.584 595.754 181.204 592.153C144.812 571.624 150.139 519.807 158.216 485.207C159.811 478.373 161.357 471.282 164.608 465.048Z" fill="#070707"/>
</svg>
